<svg width="916" height="180" viewBox="0 0 916 180" fill="none" xmlns="http://www.w3.org/2000/svg">
<path d="M35.956 179.98C27.7169 179.98 19.6878 177.15 13.1785 171.811C4.80947 164.951 0 154.802 0 143.973C0 127.494 11.7287 113.185 27.8869 109.956L53.994 104.736V46.3806C53.994 29.5919 65.9427 15.0131 82.4109 11.7233L137.565 0.694186C148.034 -1.39565 158.762 1.28414 167.011 8.0436C175.261 14.8131 180 24.8123 180 35.4814C180 52.3301 168.011 66.9589 151.483 70.2687L126.006 75.3683V79.7279C126.006 96.5166 114.057 111.095 97.5892 114.385L72.012 119.505V143.993C72.012 161.091 59.8434 175.94 43.0752 179.29C40.7055 179.76 38.3257 180 35.966 180L35.956 179.98ZM54.004 123.084L31.4265 127.604C23.6474 129.164 18.008 136.043 18.008 143.973C18.008 149.382 20.4077 154.462 24.5973 157.892C28.7868 161.321 34.2262 162.681 39.5356 161.621C47.9147 159.942 54.004 152.522 54.004 143.973V123.084ZM144.534 18.0028C143.384 18.0028 142.244 18.1028 141.094 18.3328L85.9505 29.3619C77.8714 30.9818 72.002 38.1312 72.002 46.3706V101.126L94.0496 96.7166C102.129 95.0967 107.998 87.9473 107.998 79.7079V60.5994L147.944 52.6101C156.083 50.9802 161.992 43.7708 161.992 35.4714C161.992 30.2118 159.662 25.2922 155.593 21.9625C152.433 19.3727 148.533 18.0028 144.534 18.0028Z" fill="url(#paint0_linear_3626_14069)"/>
<path d="M35.956 179.98C27.7169 179.98 19.6878 177.15 13.1785 171.811C4.80947 164.951 0 154.802 0 143.973C0 127.494 11.7287 113.185 27.8869 109.956L53.994 104.736V46.3806C53.994 29.5919 65.9427 15.0131 82.4109 11.7233L137.565 0.694186C148.034 -1.39565 158.762 1.28414 167.011 8.0436C175.261 14.8131 180 24.8123 180 35.4814C180 52.3301 168.011 66.9589 151.483 70.2687L126.006 75.3683V79.7279C126.006 96.5166 114.057 111.095 97.5892 114.385L72.012 119.505V143.993C72.012 161.091 59.8434 175.94 43.0752 179.29C40.7055 179.76 38.3257 180 35.966 180L35.956 179.98ZM54.004 123.084L31.4265 127.604C23.6474 129.164 18.008 136.043 18.008 143.973C18.008 149.382 20.4077 154.462 24.5973 157.892C28.7868 161.321 34.2262 162.681 39.5356 161.621C47.9147 159.942 54.004 152.522 54.004 143.973V123.084ZM144.534 18.0028C143.384 18.0028 142.244 18.1028 141.094 18.3328L85.9505 29.3619C77.8714 30.9818 72.002 38.1312 72.002 46.3706V101.126L94.0496 96.7166C102.129 95.0967 107.998 87.9473 107.998 79.7079V60.5994L147.944 52.6101C156.083 50.9802 161.992 43.7708 161.992 35.4714C161.992 30.2118 159.662 25.2922 155.593 21.9625C152.433 19.3727 148.533 18.0028 144.534 18.0028Z" fill="url(#paint1_linear_3626_14069)" fill-opacity="0.32" style="mix-blend-mode:soft-light"/>
<g style="mix-blend-mode:color-burn">
<path d="M0 143.973C0 154.802 4.80947 164.951 13.1785 171.811L24.5973 157.892C20.4077 154.462 18.008 149.382 18.008 143.973C18.008 136.043 23.6474 129.164 31.4265 127.604L54.004 123.085L53.994 104.736L27.8869 109.956C11.7287 113.185 0 127.494 0 143.973Z" fill="url(#paint2_linear_3626_14069)" fill-opacity="0.4"/>
</g>
<g style="mix-blend-mode:color-burn">
<path d="M126.006 79.728V75.3683L107.998 60.5995V79.708C107.998 87.9473 102.129 95.0968 94.0496 96.7166L72.002 101.126L72.012 119.505L97.5892 114.385C114.057 111.095 126.006 96.5166 126.006 79.728Z" fill="url(#paint3_linear_3626_14069)" fill-opacity="0.4"/>
</g>
<path d="M238 146.545V32H319.571V48.5273H256.584V80.4364H313.486V96.9636H256.584V146.545H238Z" fill="#060012"/>
<path d="M348.124 146.545C336.283 146.545 329.705 140.164 329.705 128.218V32H347.302V131.491H355.36V146.545H348.124Z" fill="#060012"/>
<path d="M403.827 149C378.336 149 361.725 131.655 361.725 105.309C361.725 78.8 378.336 61.6182 403.827 61.6182C429.482 61.6182 445.928 78.8 445.928 105.309C445.928 131.655 429.482 149 403.827 149ZM403.827 133.945C418.299 133.945 427.673 122.655 427.673 105.309C427.673 87.9636 418.299 76.6727 403.827 76.6727C389.354 76.6727 379.816 87.9636 379.816 105.309C379.816 122.655 389.354 133.945 403.827 133.945Z" fill="#060012"/>
<path d="M473.701 146.545L448.703 64.0727H467.122L482.746 122.655H483.733L500.014 64.0727H517.118L533.235 122.655H534.221L550.009 64.0727H568.429L543.431 146.545H524.354L508.895 90.2545H508.237L492.613 146.545H473.701Z" fill="#060012"/>
<path d="M623.381 149C610.389 149 600.357 143.436 594.436 133.127V146.545H578.319V32H595.916V75.3636C602.001 66.5273 611.375 61.6182 623.381 61.6182C645.583 61.6182 660.713 78.4727 660.713 105.309C660.713 132.145 645.583 149 623.381 149ZM619.434 133.945C633.577 133.945 642.458 122.655 642.458 105.309C642.458 87.9636 633.577 76.6727 619.434 76.6727C605.126 76.6727 595.587 87.9636 595.587 105.309C595.587 122.655 605.126 133.945 619.434 133.945Z" fill="#060012"/>
<path d="M697.752 149C679.662 149 668.807 138.364 668.807 123.473C668.807 109.073 678.839 99.7455 697.916 98.4364L718.145 96.9636C722.092 96.6364 724.23 95 724.23 89.9273C724.23 80.1091 716.829 76.0182 706.797 76.0182C695.45 76.0182 689.2 81.2545 688.049 90.2545H670.945C673.083 71.6 685.582 61.6182 706.962 61.6182C728.835 61.6182 741.991 71.9273 741.991 94.8364V131.491H748.734V146.545H741.333C732.124 146.545 727.19 141.473 726.861 131.655C721.763 143.273 711.073 149 697.752 149ZM700.877 134.764C714.527 134.764 724.559 125.436 724.559 111.691V108.582L701.206 110.218C690.68 111.036 686.569 115.455 686.569 122.491C686.569 130.673 691.996 134.764 700.877 134.764Z" fill="#060012"/>
<path d="M803.046 99.0909C819.328 102.2 828.373 110.055 828.373 123.309C828.373 139.182 814.887 149 793.508 149C770.319 149 756.176 137.545 755.682 119.382H772.128C773.279 128.873 780.022 134.764 793.343 134.764C803.869 134.764 810.611 130.836 810.611 123.309C810.611 117.418 806.5 114.309 797.29 112.673L784.792 110.382C767.03 107.436 757.82 99.7455 757.82 86.8182C757.82 72.0909 769.826 61.6182 790.548 61.6182C811.105 61.6182 824.426 71.9273 825.577 89.6H808.802C807.816 80.9273 801.566 75.5273 790.383 75.5273C780.022 75.5273 775.089 79.9455 775.089 86.1636C775.089 91.5636 778.871 94.8364 789.561 96.6364L803.046 99.0909Z" fill="#060012"/>
<path d="M877.271 149C851.944 149 835.828 131.818 835.828 105.309C835.828 79.1273 851.615 61.6182 877.107 61.6182C904.078 61.6182 919.208 81.2545 915.425 110.218H853.589C854.74 125.436 863.292 134.6 877.271 134.6C888.948 134.6 895.361 128.218 897.17 122.327H914.603C911.149 137.545 897.828 149 877.271 149ZM854.082 97.4545H898.157C898.322 85.1818 890.592 75.6909 876.449 75.6909C864.279 75.6909 855.727 83.7091 854.082 97.4545Z" fill="#060012"/>
<defs>
<linearGradient id="paint0_linear_3626_14069" x1="180" y1="0" x2="49.5" y2="240" gradientUnits="userSpaceOnUse">
<stop stop-color="#9969FF"/>
<stop offset="0.5" stop-color="#6892FF"/>
<stop offset="1" stop-color="#9FDDFF"/>
</linearGradient>
<linearGradient id="paint1_linear_3626_14069" x1="90" y1="0" x2="90" y2="180" gradientUnits="userSpaceOnUse">
<stop offset="0.377241" stop-color="white" stop-opacity="0"/>
<stop offset="1" stop-color="white"/>
</linearGradient>
<linearGradient id="paint2_linear_3626_14069" x1="54.33" y1="114.073" x2="18.6517" y2="121.289" gradientUnits="userSpaceOnUse">
<stop stop-color="#1C004E"/>
<stop offset="1" stop-color="#6732C5" stop-opacity="0"/>
</linearGradient>
<linearGradient id="paint3_linear_3626_14069" x1="70.4998" y1="111.017" x2="107.854" y2="87.3954" gradientUnits="userSpaceOnUse">
<stop stop-color="#1C004E"/>
<stop offset="1" stop-color="#6732C5" stop-opacity="0"/>
</linearGradient>
</defs>
</svg>
