<svg width="79" height="20" viewBox="0 0 79 20" fill="none" xmlns="http://www.w3.org/2000/svg">
<path d="M16.2061 19.248H7.27559C6.93993 19.248 6.69259 19.1773 6.53359 19.036C6.39226 18.877 6.32159 18.6297 6.32159 18.294V1.12201C6.32159 0.786348 6.39226 0.547848 6.53359 0.406515C6.69259 0.247515 6.93993 0.168015 7.27559 0.168015H16.2061C18.4144 0.168015 20.0486 0.609681 21.1086 1.49301C22.1863 2.37635 22.7251 3.73668 22.7251 5.57401V13.842C22.7251 15.6793 22.1863 17.0397 21.1086 17.923C20.0486 18.8063 18.4144 19.248 16.2061 19.248ZM12.3371 5.22951V14.2395H15.4906C15.9146 14.2395 16.2238 14.1335 16.4181 13.9215C16.6301 13.7095 16.7361 13.3827 16.7361 12.941V6.50151C16.7361 6.05985 16.6301 5.74185 16.4181 5.54751C16.2238 5.33551 15.9146 5.22951 15.4906 5.22951H12.3371Z" fill="black"/>
<path d="M42.3376 14.2395C42.3376 15.0522 42.2139 15.7942 41.9666 16.4655C41.7369 17.1192 41.3129 17.6845 40.6946 18.1615C40.0939 18.6208 39.2636 18.983 38.2036 19.248C37.1436 19.513 35.7921 19.6455 34.1491 19.6455C32.5061 19.6455 31.1546 19.513 30.0946 19.248C29.0346 18.983 28.1954 18.6208 27.5771 18.1615C26.9764 17.6845 26.5524 17.1192 26.3051 16.4655C26.0754 15.7942 25.9606 15.0522 25.9606 14.2395V1.12201C25.9606 0.786348 26.0312 0.547848 26.1726 0.406515C26.3316 0.247515 26.5789 0.168015 26.9146 0.168015H31.0751C31.4107 0.168015 31.6492 0.247515 31.7906 0.406515C31.9496 0.547848 32.0291 0.786348 32.0291 1.12201V13.206C32.0291 13.5593 32.1616 13.8597 32.4266 14.107C32.6916 14.3367 33.2834 14.4515 34.2021 14.4515C35.1384 14.4515 35.7391 14.3367 36.0041 14.107C36.2691 13.8597 36.4016 13.5593 36.4016 13.206V1.12201C36.4016 0.786348 36.4722 0.547848 36.6136 0.406515C36.7726 0.247515 37.0199 0.168015 37.3556 0.168015H41.3836C41.7192 0.168015 41.9577 0.247515 42.0991 0.406515C42.2581 0.547848 42.3376 0.786348 42.3376 1.12201V14.2395Z" fill="black"/>
<path d="M60.3071 19.248H46.8186C46.4829 19.248 46.2356 19.1773 46.0766 19.036C45.9352 18.877 45.8646 18.6297 45.8646 18.294V1.12201C45.8646 0.786348 45.9352 0.547848 46.0766 0.406515C46.2356 0.247515 46.4829 0.168015 46.8186 0.168015H50.9261C51.2617 0.168015 51.5002 0.247515 51.6416 0.406515C51.8006 0.547848 51.8801 0.786348 51.8801 1.12201V14.2395H55.5106V9.94652C55.5106 9.61085 55.5812 9.37235 55.7226 9.23101C55.8816 9.07201 56.1289 8.99251 56.4646 8.99251H60.3071C60.6427 8.99251 60.8812 9.07201 61.0226 9.23101C61.1816 9.37235 61.2611 9.61085 61.2611 9.94652V18.294C61.2611 18.6297 61.1816 18.877 61.0226 19.036C60.8812 19.1773 60.6427 19.248 60.3071 19.248Z" fill="black"/>
<path d="M77.5403 19.248H65.2443C64.9087 19.248 64.6613 19.1773 64.5023 19.036C64.361 18.877 64.2903 18.6297 64.2903 18.294V1.12201C64.2903 0.786348 64.361 0.547848 64.5023 0.406515C64.6613 0.247515 64.9087 0.168015 65.2443 0.168015H77.5403C77.876 0.168015 78.1145 0.247515 78.2558 0.406515C78.4148 0.547848 78.4943 0.786348 78.4943 1.12201V4.22251C78.4943 4.55818 78.4148 4.80551 78.2558 4.96451C78.1145 5.10585 77.876 5.17651 77.5403 5.17651H70.2263V7.21701H75.3938C75.7295 7.21701 75.968 7.29651 76.1093 7.45551C76.2683 7.59685 76.3478 7.83535 76.3478 8.17101V11.0065C76.3478 11.3422 76.2683 11.5895 76.1093 11.7485C75.968 11.8898 75.7295 11.9605 75.3938 11.9605H70.2263V14.2395H77.5403C77.876 14.2395 78.1145 14.319 78.2558 14.478C78.4148 14.6193 78.4943 14.8578 78.4943 15.1935V18.294C78.4943 18.6297 78.4148 18.877 78.2558 19.036C78.1145 19.1773 77.876 19.248 77.5403 19.248Z" fill="black"/>
<path d="M16.2061 19.248H7.27559C6.93993 19.248 6.69259 19.1773 6.53359 19.036C6.39226 18.877 6.32159 18.6297 6.32159 18.294V1.12201C6.32159 0.786348 6.39226 0.547848 6.53359 0.406515C6.69259 0.247515 6.93993 0.168015 7.27559 0.168015H16.2061C18.4144 0.168015 20.0486 0.609681 21.1086 1.49301C22.1863 2.37635 22.7251 3.73668 22.7251 5.57401V13.842C22.7251 15.6793 22.1863 17.0397 21.1086 17.923C20.0486 18.8063 18.4144 19.248 16.2061 19.248ZM12.3371 5.22951V14.2395H15.4906C15.9146 14.2395 16.2238 14.1335 16.4181 13.9215C16.6301 13.7095 16.7361 13.3827 16.7361 12.941V6.50151C16.7361 6.05985 16.6301 5.74185 16.4181 5.54751C16.2238 5.33551 15.9146 5.22951 15.4906 5.22951H12.3371Z" fill="black"/>
<path d="M0.606033 5.81912H4.49309M0.606034 13.5932H4.49309M8.38016 18.7615H4.49309C3.41971 18.7615 2.54956 17.8913 2.54956 16.818L2.54956 9.70619L2.54956 2.62993C2.54956 1.55655 3.41971 0.686402 4.49309 0.686402L8.38015 0.686401" stroke="black" stroke-linecap="round" stroke-linejoin="round"/>
</svg>
