<svg width="257" height="257" viewBox="0 0 257 257" fill="none" xmlns="http://www.w3.org/2000/svg">
<path d="M122.926 172.159L112.656 195.571C108.71 204.571 96.1955 204.571 92.2499 195.571L81.9797 172.159C72.8376 151.324 56.3889 134.737 35.8718 125.673L7.6039 113.181C-1.3862 109.213 -1.3862 96.1984 7.6039 92.2247L34.9892 80.1232C56.0382 70.8259 72.7792 53.6277 81.7634 32.0777L92.1681 7.12986C96.026 -2.12666 108.88 -2.12666 112.744 7.12986L123.148 32.0777C132.132 53.6219 148.879 70.8201 169.922 80.1232L197.308 92.2247C206.298 96.1926 206.298 109.208 197.308 113.181L169.04 125.673C148.517 134.743 132.068 151.324 122.926 172.159Z" fill="url(#paint0_radial_32_1498)"/>
<path d="M218.368 245.984L215.481 252.57C213.365 257.393 206.654 257.393 204.544 252.57L201.657 245.984C196.507 234.237 187.236 224.882 175.663 219.768L166.766 215.835C161.955 213.706 161.955 206.747 166.766 204.618L175.166 200.9C187.032 195.652 196.472 185.953 201.534 173.805L204.497 166.684C206.567 161.721 213.458 161.721 215.522 166.684L218.485 173.805C223.547 185.953 232.988 195.652 244.854 200.9L253.253 204.618C258.064 206.747 258.064 213.706 253.253 215.835L244.357 219.768C232.789 224.882 223.518 234.237 218.368 245.984Z" fill="url(#paint1_radial_32_1498)"/>
<defs>
<radialGradient id="paint0_radial_32_1498" cx="0" cy="0" r="1" gradientUnits="userSpaceOnUse" gradientTransform="translate(159.644 110.38) rotate(78.8071) scale(158.776 159.542)">
<stop stop-color="#1BA1E3"/>
<stop offset="0.3" stop-color="#5489D6"/>
<stop offset="0.545" stop-color="#9B72CB"/>
<stop offset="0.825" stop-color="#D96570"/>
<stop offset="1" stop-color="#F49C46"/>
</radialGradient>
<radialGradient id="paint1_radial_32_1498" cx="0" cy="0" r="1" gradientUnits="userSpaceOnUse" gradientTransform="translate(159.644 110.38) rotate(78.8071) scale(158.776 159.542)">
<stop stop-color="#1BA1E3"/>
<stop offset="0.3" stop-color="#5489D6"/>
<stop offset="0.545" stop-color="#9B72CB"/>
<stop offset="0.825" stop-color="#D96570"/>
<stop offset="1" stop-color="#F49C46"/>
</radialGradient>
</defs>
</svg>
